<svg width="15" height="15" viewBox="0 0 15 15" fill="none" xmlns="http://www.w3.org/2000/svg">
<g id="AdminPanelSettingsFilled">
<g id="Vector">
<path d="M10.2 8.1001C8.87399 8.1001 7.79999 9.1741 7.79999 10.5001C7.79999 11.8261 8.87399 12.9001 10.2 12.9001C11.526 12.9001 12.6 11.8261 12.6 10.5001C12.6 9.1741 11.526 8.1001 10.2 8.1001ZM10.2 8.9281C10.572 8.9281 10.872 9.2341 10.872 9.6001C10.872 9.9661 10.566 10.2721 10.2 10.2721C9.83399 10.2721 9.52799 9.9661 9.52799 9.6001C9.52799 9.2341 9.82799 8.9281 10.2 8.9281ZM10.2 12.1501C9.64199 12.1501 9.15599 11.8741 8.85599 11.4481C8.88599 11.0161 9.76199 10.8001 10.2 10.8001C10.638 10.8001 11.514 11.0161 11.544 11.4481C11.244 11.8741 10.758 12.1501 10.2 12.1501Z" fill="url(#paint0_linear_15_4179)"/>
<path d="M10.2 6.9001C10.404 6.9001 10.602 6.9241 10.8 6.9541V4.0621L6.29999 2.1001L1.79999 4.0621V7.0081C1.79999 9.7321 3.71999 12.2821 6.29999 12.9001C6.62999 12.8221 6.94799 12.7081 7.25999 12.5701C6.84599 11.9821 6.59999 11.2681 6.59999 10.5001C6.59999 8.5141 8.21399 6.9001 10.2 6.9001Z" fill="url(#paint1_linear_15_4179)"/>
</g>
</g>
<defs>
<linearGradient id="paint0_linear_15_4179" x1="7.19999" y1="2.1001" x2="7.19999" y2="12.9001" gradientUnits="userSpaceOnUse">
<stop stop-color="white"/>
<stop offset="1" stop-color="#56E1FF"/>
</linearGradient>
<linearGradient id="paint1_linear_15_4179" x1="7.19999" y1="2.1001" x2="7.19999" y2="12.9001" gradientUnits="userSpaceOnUse">
<stop stop-color="white"/>
<stop offset="1" stop-color="#56E1FF"/>
</linearGradient>
</defs>
</svg>
