<svg width="15" height="15" viewBox="0 0 15 15" fill="none" xmlns="http://www.w3.org/2000/svg">
<g id="MonetizationOnFilled">
<path id="Vector" d="M7.20001 1.5C3.88801 1.5 1.20001 4.188 1.20001 7.5C1.20001 10.812 3.88801 13.5 7.20001 13.5C10.512 13.5 13.2 10.812 13.2 7.5C13.2 4.188 10.512 1.5 7.20001 1.5ZM8.04601 11.154V12.3H6.44401V11.142C5.41801 10.926 4.54801 10.266 4.48201 9.102H5.65801C5.71801 9.732 6.15001 10.224 7.24801 10.224C8.42401 10.224 8.68801 9.636 8.68801 9.27C8.68801 8.772 8.42401 8.304 7.08601 7.986C5.59801 7.626 4.57801 7.014 4.57801 5.784C4.57801 4.752 5.41201 4.08 6.44401 3.858V2.7H8.04601V3.87C9.16201 4.14 9.72001 4.986 9.75601 5.904H8.58001C8.55001 5.238 8.19601 4.782 7.24801 4.782C6.34801 4.782 5.80801 5.19 5.80801 5.766C5.80801 6.27 6.19801 6.6 7.41001 6.912C8.62201 7.224 9.91801 7.746 9.91801 9.258C9.91201 10.356 9.09001 10.956 8.04601 11.154Z" fill="url(#paint0_linear_15_5061)"/>
</g>
<defs>
<linearGradient id="paint0_linear_15_5061" x1="7.20001" y1="1.5" x2="7.20001" y2="13.5" gradientUnits="userSpaceOnUse">
<stop stop-color="white"/>
<stop offset="1" stop-color="#56E1FF"/>
</linearGradient>
</defs>
</svg>
