<svg width="15" height="15" viewBox="0 0 15 15" fill="none" xmlns="http://www.w3.org/2000/svg">
<g id="PersonSearchFilled">
<g id="Vector">
<path d="M11.658 11.1121C11.874 10.7581 12 10.3441 12 9.90007C12 8.57407 10.926 7.50007 9.60001 7.50007C8.27401 7.50007 7.20001 8.57407 7.20001 9.90007C7.20001 11.2261 8.27401 12.3001 9.60001 12.3001C10.044 12.3001 10.458 12.1681 10.812 11.9581L12.354 13.5001L13.2 12.6541L11.658 11.1121ZM9.60001 11.1001C8.94001 11.1001 8.40001 10.5601 8.40001 9.90007C8.40001 9.24007 8.94001 8.70007 9.60001 8.70007C10.26 8.70007 10.8 9.24007 10.8 9.90007C10.8 10.5601 10.26 11.1001 9.60001 11.1001Z" fill="url(#paint0_linear_15_6062)"/>
<path d="M6.21001 8.70609C4.57201 8.64609 1.20001 9.46209 1.20001 11.1001V12.3001H6.92401C5.44201 10.6441 6.18601 8.76609 6.21001 8.70609Z" fill="url(#paint1_linear_15_6062)"/>
<path d="M6.00001 7.50007C7.32549 7.50007 8.40001 6.42556 8.40001 5.10007C8.40001 3.77459 7.32549 2.70007 6.00001 2.70007C4.67453 2.70007 3.60001 3.77459 3.60001 5.10007C3.60001 6.42556 4.67453 7.50007 6.00001 7.50007Z" fill="url(#paint2_linear_15_6062)"/>
</g>
</g>
<defs>
<linearGradient id="paint0_linear_15_6062" x1="7.20001" y1="2.70007" x2="7.20001" y2="13.5001" gradientUnits="userSpaceOnUse">
<stop stop-color="white"/>
<stop offset="1" stop-color="#56E1FF"/>
</linearGradient>
<linearGradient id="paint1_linear_15_6062" x1="7.20001" y1="2.70007" x2="7.20001" y2="13.5001" gradientUnits="userSpaceOnUse">
<stop stop-color="white"/>
<stop offset="1" stop-color="#56E1FF"/>
</linearGradient>
<linearGradient id="paint2_linear_15_6062" x1="7.20001" y1="2.70007" x2="7.20001" y2="13.5001" gradientUnits="userSpaceOnUse">
<stop stop-color="white"/>
<stop offset="1" stop-color="#56E1FF"/>
</linearGradient>
</defs>
</svg>
