<svg width="15" height="15" viewBox="0 0 15 15" fill="none" xmlns="http://www.w3.org/2000/svg">
<g id="SupervisedUserCircleFilled">
<path id="Vector" d="M7.19399 1.5C3.88199 1.5 1.19399 4.188 1.19399 7.5C1.19399 10.812 3.88199 13.5 7.19399 13.5C10.506 13.5 13.194 10.812 13.194 7.5C13.194 4.188 10.506 1.5 7.19399 1.5ZM9.35999 5.304C10.002 5.304 10.518 5.82 10.518 6.462C10.518 7.104 10.002 7.62 9.35999 7.62C8.71799 7.62 8.20199 7.104 8.20199 6.462C8.19599 5.82 8.71799 5.304 9.35999 5.304ZM5.75999 4.356C6.53999 4.356 7.17599 4.992 7.17599 5.772C7.17599 6.552 6.53999 7.188 5.75999 7.188C4.97999 7.188 4.34399 6.552 4.34399 5.772C4.34399 4.986 4.97399 4.356 5.75999 4.356ZM5.75999 9.834V12.084C4.31999 11.634 3.17999 10.524 2.67599 9.108C3.30599 8.436 4.87799 8.094 5.75999 8.094C6.07799 8.094 6.47999 8.142 6.89999 8.226C5.91599 8.748 5.75999 9.438 5.75999 9.834ZM7.19399 12.3C7.03199 12.3 6.87599 12.294 6.71999 12.276V9.834C6.71999 8.982 8.48399 8.556 9.35999 8.556C10.002 8.556 11.112 8.79 11.664 9.246C10.962 11.028 9.22799 12.3 7.19399 12.3Z" fill="url(#paint0_linear_5_2323)"/>
</g>
<defs>
<linearGradient id="paint0_linear_5_2323" x1="7.19399" y1="1.5" x2="7.19399" y2="13.5" gradientUnits="userSpaceOnUse">
<stop stop-color="white"/>
<stop offset="1" stop-color="#56E1FF"/>
</linearGradient>
</defs>
</svg>
