<svg width="94" height="18" viewBox="0 0 94 18" fill="none" xmlns="http://www.w3.org/2000/svg">
<g id="Group">
<path id="Vector" d="M53.7058 0.431641L62.541 13.9416C62.541 13.9531 62.5525 13.9705 62.5757 13.9929C62.5988 14.0161 62.6155 14.0334 62.627 14.0443H62.6784H62.7297C62.7413 14.0327 62.7558 14.0161 62.7724 13.9929C62.7898 13.9698 62.8093 13.9531 62.8325 13.9416C62.9012 13.8273 71.6503 0.431641 71.6503 0.431641H73.9533L62.6784 17.5689L51.4201 0.431641H53.7058Z" fill="#2196F3"/>
<path id="Vector_2" d="M74.8225 8.99996C74.8225 7.76239 75.0713 6.60799 75.5704 5.53605C76.0688 4.46483 76.7364 3.53972 77.5733 2.76C78.4094 1.98099 79.3779 1.36763 80.4781 0.920628C81.5782 0.473624 82.7355 0.250122 83.9499 0.250122C85.1644 0.250122 86.3217 0.473624 87.4218 0.920628C88.522 1.36763 89.4897 1.98099 90.3266 2.76C91.1628 3.539 91.8275 4.46483 92.3208 5.53605C92.8133 6.60799 93.06 7.76166 93.06 8.99996C93.06 10.2383 92.8133 11.3919 92.3208 12.4639C91.8282 13.5358 91.1635 14.4609 90.3266 15.2399C89.4897 16.0189 88.522 16.6323 87.4218 17.0793C86.3217 17.5263 85.1644 17.7498 83.9499 17.7498C82.7355 17.7498 81.5775 17.5263 80.4781 17.0793C79.3779 16.6323 78.4094 16.0197 77.5733 15.2399C76.7364 14.4609 76.0688 13.5358 75.5704 12.4639C75.0713 11.3927 74.8225 10.2375 74.8225 8.99996ZM76.8847 8.94861C76.8847 9.9229 77.0706 10.8364 77.4431 11.6899C77.8156 12.5442 78.3255 13.2856 78.9729 13.9156C79.6202 14.5463 80.371 15.0446 81.2245 15.4114C82.078 15.7781 82.9865 15.9611 83.9492 15.9611C84.9119 15.9611 85.8197 15.7781 86.6739 15.4114C87.5274 15.0446 88.2782 14.5463 88.9256 13.9156C89.5729 13.2856 90.0829 12.5434 90.4554 11.6899C90.8279 10.8364 91.0138 9.92218 91.0138 8.94861C91.0138 7.97504 90.8271 7.06078 90.4554 6.20655C90.0829 5.35305 89.5729 4.61094 88.9256 3.98094C88.2782 3.35094 87.5274 2.85258 86.6739 2.48586C85.8197 2.11915 84.9119 1.93543 83.9492 1.93543C82.9865 1.93543 82.078 2.11915 81.2245 2.48586C80.371 2.85258 79.6202 3.35094 78.9729 3.98094C78.3255 4.61166 77.8156 5.35305 77.4431 6.20655C77.0713 7.06078 76.8847 7.97504 76.8847 8.94861Z" fill="#2196F3"/>
<g id="Group_2">
<path id="Vector_3" d="M20.2555 0.250854V2.04465V2.2168H34.433V2.04465V0.250854H20.2555Z" fill="#2196F3"/>
<path id="Vector_4" d="M20.2555 8.10376V8.99994V9.89684V9.98291H29.5138V9.89684V8.10376V8.01697H20.2555V8.10376Z" fill="#2196F3"/>
<path id="Vector_5" d="M20.2555 15.956V17.749H34.433V15.956V15.7831H20.2555V15.956Z" fill="#2196F3"/>
</g>
<path id="Vector_6" d="M48.5266 5.11727C48.5266 2.42946 46.348 0.251587 43.6609 0.251587H38.1941V2.21464H43.6464C45.2493 2.21464 46.5491 3.51442 46.5491 5.11727C46.5491 6.72012 45.2493 8.0199 43.6464 8.0199H41.7318L41.7304 8.01773H39.444L45.8373 17.7498H48.094L43.015 9.98368H43.6602C46.348 9.98296 48.5266 7.80436 48.5266 5.11727Z" fill="#2196F3"/>
<path id="Vector_7" d="M5.68664 2.95445C6.00128 2.73023 6.37667 2.56025 6.80849 2.44163C7.27141 2.32156 7.75168 2.24634 8.24715 2.22608V2.21668H14.0596H16.4943V0.250732H8.24715V0.255796C7.95204 0.265199 7.66054 0.289791 7.37267 0.327403C4.80782 0.761387 3.50298 1.7827 2.86285 2.86042C2.44261 3.48608 2.23068 4.19275 2.23068 4.9826C2.23068 6.14134 2.70444 7.11564 3.65198 7.90476C4.59951 8.69389 6.11411 9.35933 8.19507 9.90037C9.85433 10.3351 11.0001 10.7748 11.6322 11.2211C12.2644 11.6667 12.5798 12.2981 12.5798 13.1133C12.5798 13.9292 12.2384 14.5729 11.5563 15.046C10.9248 15.4836 10.0323 15.744 8.888 15.7787C8.83737 15.7801 8.78674 15.7837 8.7361 15.7837H8.24715H7.3582H3.20063H-9.53674e-07V17.7497H8.24715V17.7345C8.40917 17.7432 8.57191 17.7497 8.7361 17.7497C9.12669 17.7497 9.51076 17.7229 9.88761 17.673C11.8528 17.3403 13.0781 16.6633 13.8318 15.8799C14.6224 15.1328 15.0187 14.2033 15.0187 13.0909C15.0187 12.2446 14.8104 11.509 14.3931 10.8841C13.9757 10.2591 13.3356 9.71158 12.472 9.24288C11.6084 8.77418 10.412 8.34526 8.88293 7.95539C7.35386 7.56553 6.27107 7.13661 5.63529 6.66646C4.9995 6.19704 4.68124 5.62201 4.68124 4.9421C4.68197 4.09438 5.01686 3.43183 5.68664 2.95445Z" fill="#2196F3"/>
</g>
</svg>
