<svg width="36" height="36" viewBox="0 0 36 36" fill="none" xmlns="http://www.w3.org/2000/svg">
<path d="M1.79884 18.811C3.57593 19.6749 5.49099 20.0491 7.43305 20.2773C9.50332 20.521 11.5833 20.624 13.6641 20.3528C14.0998 20.2958 14.5227 20.2054 14.9043 19.9802C15.118 19.8542 15.352 19.7231 15.328 19.4356C15.3025 19.1325 15.0326 19.0607 14.7934 19.0169C14.1605 18.9006 13.5232 18.8117 12.8888 18.7043C11.7828 18.5175 10.6918 18.2775 9.73052 17.664C7.98192 16.5474 7.75172 14.6143 9.1749 13.1183C10.2666 11.9706 11.6711 11.349 13.1542 10.9392C18.5298 9.45512 23.8895 9.48031 29.1961 11.2882C29.2028 11.2904 29.2096 11.2934 29.2163 11.2956L17.7852 0L0 17.5743C0.484389 18.0834 1.109 18.4753 1.79884 18.811Z" fill="#2196F3"/>
<path d="M31.1899 13.2457C30.4731 13.0805 29.7637 12.942 29.0477 12.8345C25.5467 12.3114 22.0338 12.2492 18.5133 12.5826C18.0844 12.6234 17.6465 12.7197 17.2446 12.8723C16.557 13.1339 16.4993 13.794 17.1006 14.2193C17.3796 14.4164 17.6923 14.5357 18.0342 14.6098C19.8668 15.0047 21.7023 15.3922 23.4224 16.1702C23.9053 16.3888 24.3785 16.6244 24.8104 16.9312C26.4195 18.073 26.7434 19.6193 25.7319 21.3064C25.0541 22.4378 24.0471 23.2173 22.9163 23.8582C20.8543 25.0274 18.6115 25.6943 16.2998 26.1655C13.7489 26.6856 11.1965 26.9479 8.64258 26.9664L17.7845 36L36.0001 18.0003L31.1899 13.2457Z" fill="#FB9E3B"/>
</svg>
