<svg width="142" height="36" viewBox="0 0 142 36" fill="none" xmlns="http://www.w3.org/2000/svg">
<path d="M1.79884 18.811C3.57593 19.6749 5.49099 20.0491 7.43305 20.2773C9.50332 20.521 11.5833 20.624 13.6641 20.3528C14.0998 20.2958 14.5227 20.2054 14.9043 19.9802C15.118 19.8542 15.352 19.7231 15.328 19.4356C15.3025 19.1325 15.0326 19.0607 14.7934 19.0169C14.1605 18.9006 13.5232 18.8117 12.8888 18.7043C11.7828 18.5175 10.6918 18.2775 9.73052 17.664C7.98192 16.5474 7.75172 14.6143 9.1749 13.1183C10.2666 11.9706 11.6711 11.349 13.1542 10.9392C18.5298 9.45512 23.8895 9.48031 29.1961 11.2882C29.2028 11.2904 29.2096 11.2934 29.2163 11.2956L17.7852 0L0 17.5743C0.484389 18.0834 1.109 18.4753 1.79884 18.811Z" fill="#2196F3"/>
<path d="M31.1899 13.2457C30.4731 13.0805 29.7637 12.942 29.0477 12.8345C25.5467 12.3114 22.0338 12.2492 18.5133 12.5826C18.0844 12.6234 17.6465 12.7197 17.2446 12.8723C16.557 13.1339 16.4993 13.794 17.1006 14.2193C17.3796 14.4164 17.6923 14.5357 18.0342 14.6098C19.8668 15.0047 21.7023 15.3922 23.4224 16.1702C23.9053 16.3888 24.3785 16.6244 24.8104 16.9312C26.4195 18.073 26.7434 19.6193 25.7319 21.3064C25.0541 22.4378 24.0471 23.2173 22.9163 23.8582C20.8543 25.0274 18.6115 25.6943 16.2998 26.1655C13.7489 26.6856 11.1965 26.9479 8.64258 26.9664L17.7845 36L36.0001 18.0003L31.1899 13.2457Z" fill="#FB9E3B"/>
<path d="M101.706 9.43166L110.541 22.9416C110.541 22.9532 110.553 22.9705 110.576 22.9929C110.599 23.0161 110.615 23.0334 110.627 23.0443H110.678H110.73C110.741 23.0327 110.756 23.0161 110.772 22.9929C110.79 22.9698 110.809 22.9532 110.832 22.9416C110.901 22.8273 119.65 9.43166 119.65 9.43166H121.953L110.678 26.569L99.4201 9.43166H101.706Z" fill="#2196F3"/>
<path d="M122.823 18C122.823 16.7624 123.071 15.608 123.57 14.5361C124.069 13.4649 124.736 12.5398 125.573 11.76C126.409 10.981 127.378 10.3677 128.478 9.92066C129.578 9.47365 130.735 9.25015 131.95 9.25015C133.164 9.25015 134.322 9.47365 135.422 9.92066C136.522 10.3677 137.49 10.981 138.327 11.76C139.163 12.539 139.827 13.4649 140.321 14.5361C140.813 15.608 141.06 16.7617 141.06 18C141.06 19.2383 140.813 20.392 140.321 21.4639C139.828 22.5359 139.163 23.461 138.327 24.24C137.49 25.019 136.522 25.6323 135.422 26.0793C134.322 26.5263 133.164 26.7498 131.95 26.7498C130.735 26.7498 129.577 26.5263 128.478 26.0793C127.378 25.6323 126.409 25.0197 125.573 24.24C124.736 23.461 124.069 22.5359 123.57 21.4639C123.071 20.3927 122.823 19.2376 122.823 18ZM124.885 17.9486C124.885 18.9229 125.071 19.8365 125.443 20.69C125.816 21.5442 126.325 22.2856 126.973 22.9156C127.62 23.5463 128.371 24.0447 129.224 24.4114C130.078 24.7781 130.986 24.9611 131.949 24.9611C132.912 24.9611 133.82 24.7781 134.674 24.4114C135.527 24.0447 136.278 23.5463 136.926 22.9156C137.573 22.2856 138.083 21.5435 138.455 20.69C138.828 19.8365 139.014 18.9222 139.014 17.9486C139.014 16.9751 138.827 16.0608 138.455 15.2066C138.083 14.3531 137.573 13.611 136.926 12.981C136.278 12.351 135.527 11.8526 134.674 11.4859C133.82 11.1192 132.912 10.9355 131.949 10.9355C130.986 10.9355 130.078 11.1192 129.224 11.4859C128.371 11.8526 127.62 12.351 126.973 12.981C126.325 13.6117 125.816 14.3531 125.443 15.2066C125.071 16.0608 124.885 16.9751 124.885 17.9486Z" fill="#2196F3"/>
<path d="M68.2555 9.25087V11.0447V11.2168H82.433V11.0447V9.25087H68.2555Z" fill="#2196F3"/>
<path d="M68.2555 17.1038V18V18.8969V18.9829H77.5138V18.8969V17.1038V17.017H68.2555V17.1038Z" fill="#2196F3"/>
<path d="M68.2555 24.956V26.7491H82.433V24.956V24.7831H68.2555V24.956Z" fill="#2196F3"/>
<path d="M96.5266 14.1173C96.5266 11.4295 94.348 9.25159 91.6609 9.25159H86.1941V11.2146H91.6464C93.2493 11.2146 94.549 12.5144 94.549 14.1173C94.549 15.7201 93.2493 17.0199 91.6464 17.0199H89.7318L89.7304 17.0177H87.444L93.8373 26.7498H96.094L91.015 18.9837H91.6602C94.348 18.983 96.5266 16.8044 96.5266 14.1173Z" fill="#2196F3"/>
<path d="M53.6866 11.9545C54.0013 11.7303 54.3767 11.5603 54.8085 11.4417C55.2714 11.3216 55.7517 11.2464 56.2471 11.2261V11.2167H62.0596H64.4943V9.25076H56.2471V9.25583C55.952 9.26523 55.6605 9.28982 55.3727 9.32743C52.8078 9.76142 51.503 10.7827 50.8629 11.8605C50.4426 12.4861 50.2307 13.1928 50.2307 13.9826C50.2307 15.1414 50.7044 16.1157 51.652 16.9048C52.5995 17.6939 54.1141 18.3594 56.1951 18.9004C57.8543 19.3351 59.0001 19.7749 59.6322 20.2212C60.2644 20.6667 60.5798 21.2982 60.5798 22.1133C60.5798 22.9292 60.2384 23.573 59.5563 24.046C58.9248 24.4836 58.0323 24.744 56.888 24.7787C56.8374 24.7802 56.7867 24.7838 56.7361 24.7838H56.2471H55.3582H51.2006H48V26.7497H56.2471V26.7345C56.4092 26.7432 56.5719 26.7497 56.7361 26.7497C57.1267 26.7497 57.5108 26.723 57.8876 26.673C59.8528 26.3403 61.0781 25.6633 61.8318 24.88C62.6224 24.1328 63.0187 23.2033 63.0187 22.0909C63.0187 21.2446 62.8104 20.509 62.3931 19.8841C61.9757 19.2592 61.3356 18.7116 60.472 18.2429C59.6084 17.7742 58.412 17.3453 56.8829 16.9554C55.3539 16.5656 54.2711 16.1366 53.6353 15.6665C52.9995 15.1971 52.6812 14.622 52.6812 13.9421C52.682 13.0944 53.0169 12.4319 53.6866 11.9545Z" fill="#2196F3"/>
</svg>
